<?xml version="1.0" encoding="UTF-8"?>
<svg width="48" height="48" version="1.1" viewBox="0 0 12.7 12.7" xmlns="http://www.w3.org/2000/svg">
 <g transform="translate(-.052917 -.026458)">
  <g transform="translate(-.052917 -.18521)" stroke-linejoin="round" stroke-width=".26458">
   <path d="m6.6313 5.4103c0.41252 0.21471-0.23918 0.49906-0.1267 0.62015 0.25758 0.27727-0.083705 0.58709-0.077173 0.8391 0.019266 0.74333-0.011508 0.53163-0.011508 0.53163l0.45921-0.01435 0.10285-0.46503c-0.04282-0.78961 0.086514-1.501 0.46431-2.0994-0.43503 0.052778-0.44346 0.36944-0.80304 0.14268-0.073573-0.046395-0.30084-0.20318-0.26903-0.39291 0.053571-0.3195 0.41413-0.71382 0.36174-0.69613-1.4319 0.48353-0.55402 1.2983-0.10066 1.5342z" fill="#3c993b" stroke="#2c572f" style="paint-order:markers fill stroke"/>
   <g stroke="#543f1d">
    <path d="m2.9133 9.6431 7.205-0.031989s-0.16525-1.078-1.0143-1.1455c-0.20168-0.12314-0.41239-0.6713-0.50691-0.84186-1.416-0.54751-0.21861-0.77158-1.8654-0.69618-0.64991 0.029759-1.027 0.12274-1.3302 0.43541-0.078802 0.081261-0.22304 0.66582-0.35506 0.67245-0.57872 0.029055-0.72927 0.28449-0.88966 0.70985-0.16138 0.42806-1.2435 0.89777-1.2435 0.89777z" fill="#9c6525" style="paint-order:markers fill stroke"/>
    <path d="m2.2557 9.824 3.8183-0.089391c-0.23843-0.90899-0.53055-1.462-1.7794-1.4207-0.6239 0.29585-0.57516 0.74761-0.94509 0.86082-0.53729 0.16442-1.0491-0.080177-1.0938 0.64927z" fill="#946024" stroke-linecap="round" stroke-width=".26458" style="paint-order:markers fill stroke"/>
    <path d="m8.2762 9.7244 2.5555-0.0033c-0.58284-0.57893-0.11439-0.75879-1.3633-0.71752-0.91569 0.052224-1.1884 0.32145-1.1922 0.72082z" fill="#905d21" style="paint-order:markers fill stroke"/>
   </g>
   <path d="m4.8951 5.3898c1.3839 1.4026 1.5136 1.1466 1.6018 0.48985 0.088208-0.65671-1.6018-0.48985-1.6018-0.48985z" fill="#59e658" stroke="#29b332" style="paint-order:markers fill stroke"/>
   <path d="m8.9346 4.3467c-1.9617-0.18488-1.8234 0.054522-1.5419 0.65439 0.31953 0.68105 1.475-0.42123 1.5419-0.65439z" fill="#59e658" stroke="#29b332" style="paint-order:markers fill stroke"/>
  </g>
 </g>
</svg>
