<?xml version="1.0" encoding="UTF-8"?>
<svg width="32" height="32" version="1.1" viewBox="0 0 8.4667 8.4667" xml:space="preserve" xmlns="http://www.w3.org/2000/svg"><g transform="translate(0 -288.53)"><circle cx="4.2596" cy="292.79" r="3.1571" fill="#ca9256" stroke="#8c653b" stroke-dashoffset=".4" stroke-linecap="round" stroke-linejoin="round" stroke-width=".39688"/></g><g><path d="m6.4194 2.7866c-0.049482-0.044203-0.12427-0.28027-0.22175-0.35226-0.062068-0.045832-0.068778 0.10676-0.12954 0.10496-0.061949-0.0018371-0.17765-0.1579-0.20874-0.18811-0.063129-0.061349-0.097287 0.14417-0.181 0.11887-0.12022-0.036342-0.40244-0.25089-0.52713-0.2123-0.19254 0.059591 0.16763 0.252-0.023287 0.21789-0.20152-0.036007-0.93259-0.41427-1.1009-0.54238-0.14622-0.11127-0.037966 0.18557-0.21076 0.14367-0.10292-0.024952-0.36908-0.22076-0.55348-0.21773-0.21376 0.00351 0.031247 0.11353-0.092971 0.15254-0.1249 0.039219-0.52631-0.00803-0.62406 0.030524-0.089058 0.035125 0.1249 0.15496 0.027366 0.21097-0.28078 0.16123-0.93859 0.32773-0.65817 0.38322 0.24946 0.049363 0.079059 0.11396-0.098617 0.33247-0.13957 0.17166 0.012346 0.2734-0.017124 0.38089-0.047526 0.17334-0.16783 0.47941-0.19797 0.7003-0.13973 1.024 0.26552 0.23987 0.26552 0.27054 0 0.026203-0.20416 0.33246-0.21325 0.63985-0.011264 0.38098 0.18493 0.79206 0.34985 1.0095 0.15118 0.19931 0.40553 0.34514 0.65475 0.36675 0.088253 0.00765 0.19953-0.015749 0.25075-0.08802 0.090488-0.12766-0.079559-0.3347 0-0.46944 0.056622-0.095899 0.18118-0.16113 0.29255-0.16137 0.14285-3.058e-4 0.24302 0.15354 0.37613 0.20538 0.30314 0.11804 0.59993 0.11522 0.92083 0.16857 0.446 0.074156 0.90059 0.11359 1.3513 0.077672 0.10022-0.00799 0.30452 0.039364 0.319-0.060121 0.02488-0.17091-0.4417 0.0012047-0.44578-0.17145-0.00105-0.04446 0.11508-0.029026 0.11145-0.07335-0.018699-0.22792-0.53302-0.070194-0.62688-0.27873-0.037893-0.08419 0.011964-0.2058 0.083585-0.26406 0.060086-0.048878 0.1306 0.11897 0.22986 0.049132 0.070373-0.049512 0.11052-0.16643 0.17465-0.18663 0.075745-0.023852 0.051685 0.1275 0.18735 0.094188 0.14311-0.035142 0.21237-0.26891 0.31363-0.26476 0.061437 0.00251 0.091843 0.10606 0.15324 0.10269 0.09094-0.00499 0.17055-0.093459 0.20896-0.17604 0.016498-0.035471-0.010893-0.079787 0-0.11736 0.019339-0.066703 0.19707-0.067254 0.20405-0.13635 0.0052579-0.052044-0.16189-0.13587-0.14833-0.18639 0.03416-0.1272 0.21251-0.1571 0.30648-0.24939 0.082178-0.080712 0.20207-0.15077 0.22289-0.26406 0.043094-0.23446-0.10312-0.47746-0.23682-0.67482-0.12098-0.17858-0.32672-0.28173-0.48758-0.42543z" fill="#8c653b" style="paint-order:markers fill stroke"/><path d="m2.0902 6.0193c0.3298 0.55183 1.4939 0.88526 2.1299 0.97896 0.3667 0.054026 1.4124-0.048744 1.4949-0.41011 0.042135-0.18461-0.2838-0.34897-0.46302-0.41011-0.43639-0.14886-0.96615 0.056992-1.4023-0.092605-0.23138-0.079363-0.43592-0.22247-0.64823-0.34396-0.11685-0.066862-0.34396-0.21167-0.34396-0.21167s-0.84986 0.35133-0.76729 0.48948z" fill="#8c653b" style="paint-order:markers fill stroke"/><ellipse transform="rotate(17.5)" cx="6.6894" cy="1.4627" rx=".17198" ry=".072761" fill="#ca9256" style="paint-order:markers fill stroke"/></g></svg>
