<?xml version="1.0" encoding="UTF-8"?>
<svg width="48" height="48" version="1.1" viewBox="0 0 48 48" xmlns="http://www.w3.org/2000/svg">
 <g class="colorA" fill="#764714" stroke="none">
  <path d="m15.724 26.533c-6.8024 4.7722-9.4394 7.1848-9.4394 7.1848l4.1e-4 1.9464c0.59392 0.68643 1.3032 0.84787 2.1278 0.48433l1.5746-0.76378 2.9064-1.4979 3.66-2.291 1.7793-0.46684 1.7361 1.2418-1.8502 7.4587 0.32744 1.7671 0.93707 0.60697 2.3434-0.24303 0.13877-1.453 2.9442-5.7015 1.7395-2.1347 2.2084-1.366 4.2555-1.6467 1.5591 1.0066 1.7873 1.9398 2.209 2.6961 1.4754 1.913 2.2203 1.6467 1.4044-0.25573 0.7234-1.1973-1.804-3.245-1.3987-2.3446-2.2555-3.9517-1.3099-2.7396-1.739-2.3551-2.2243-1.2985-3.2468 0.40886-4.4317 0.89883c-0.7078 0.41263-1.9474 1.1544-3.2719 2.342-1.1254 0.7448-2.2821 1.311-3.2842 1.5553-1.3275 0.25747-2.2073 0.22469-3.1964 0.06851"/>
  <path d="m29.895 32.799c-1.0841 3.3017-1.5115 4.6278-1.5115 4.6278l0.28864 1.4346 1.1512 0.3509 1.2078-0.59307 1.2952-2.4217 0.75489-2.2625c-1.4511-2.1101-2.178-0.99711-3.1862-1.136z"/>
  <path d="m15.143 12.32-1.9427 7.6524 1.3299 3.693 2.2087 1.8768 1.989 0.04843 2.9141-1.3198 2.92-2.2064 1.2952-7.8462-5.0478 3.284-2.7985-0.36325z"/>
 </g>
 <g class="colorB" fill="#deaa87" stroke="none">
  <path d="m15.243 12.87c0.50184 2.1878 2.0662 6.3694 2.0662 6.3694l0.56765-1.6419c0.31241-0.90359 0.3442 1.4975 0.31726 2.0378 0 0 0.14612-1.9432 0.77516-1.8321 0.60955 0.1076 0.15372 1.9351 0.15372 1.9351l0.40108-1.0492s0.25266-0.52771 0.37899-0.79157c0.24957-0.52125 0.21021 1.1725 0.19134 1.8237 1.5131-1.6574 3.6251-3.3926 5.6644-5.1282-1.1556 0.64062-4.8045 3.0101-4.8045 3.0101s-0.70982-0.10127-1.744-0.22399c-0.99181-0.1177-1.4186-0.29187-1.4186-0.29187s-1.6757-2.6014-2.5488-4.2174z"/>
  <path d="m35.39 20.955c1.3083 0.78769 1.2102 0.78769 1.2102 0.78769s2.017-1.2862 3.2659-2.836 1.846-3.617 2.0352-5.1823 5e-6 -2.1795-0.50881-3.8262-2.8216-3.245-2.8216-3.245-1.1101-0.8718-3.1454-1.0171c-2.0352-0.1453-4.944 1.5308-6.6377 2.4216s-2.9372 1.7436-3.261 0.67808c-0.32379-1.0655 0.37004-2.0342 0.37004-2.0342-0.09775-0.46544-0.14674-0.95642-1.2026-0.92023l-1.2026 2.0342 0.13782 1.4661 1.431 1.5133 2.627-0.03218 3.4873-2.0523 1.805-0.98676 2.6098-0.19598 2.3338 0.86918 1.3009 1.5435 0.56476 2.3094-0.13394 2.823-1.632 3.0164-2.4124 1.9315z"/>
  <path d="m24.745 23.602c0.12106 0.61689 0.27504 1.1014 0.46703 1.4741 0.27213 0.52834 1.3165 2.1527 1.5678 1.9788 0.25127-0.17387-0.86638-3.7382 0.39714-4.0728 1.1124-0.29461 1.4242 3.0013 1.9358 2.9804 0.51158-0.02096 0.03939-3.4736 1.2452-3.5674 1.1116-0.08654 1.1678 2.9888 1.5017 3.0405 0.33391 0.05179 0.53454-0.92207 0.53454-0.92207s0.59627-2.2712 1.2671-2.2854c1.1792-0.02497 0.12365 3.1648 0.49374 3.1341 0.59438-0.04925 0.9917-0.33601 1.504-0.81042 0.32327-0.29934 0.90784-0.9806 0.90784-0.9806l-1.7891-1.5166-1.5264-0.4359h-1.4339l-2.0815 0.4359-2.0352 0.33903s-1.0657 0.15948-1.5727 0.33903c-0.4848 0.17168-1.383 0.86936-1.383 0.86936z"/>
  <path d="m8.6438 31.862-1.4802 1.0897-1.0176 1.453 0.18502 1.0171 0.8326 0.8718 1.804-0.53276 1.2952-0.84758s-0.90823-0.82422-1.1795-1.3319c-0.36234-0.67806-0.43943-1.7194-0.43943-1.7194z"/>
  <path d="m18.728 38.183-0.46256 2.3248 0.13877 1.453 1.4339 0.4359 1.2489-0.2906 0.97137-0.82336 0.60132-1.6952 0.18502-0.48433s-1.4257 0.0029-2.0691-0.1409c-0.72879-0.16291-2.0476-0.77932-2.0476-0.77932z"/>
  <path d="m28.904 35.761-0.60132 2.1311 0.55507 1.114 1.0176 0.24217 1.2489-0.82336 0.74009-1.2593 0.23128-0.4359s-1.0366 0.05249-1.5087-0.09078c-0.59182-0.17962-1.683-0.87789-1.683-0.87789z"/>
  <path d="m39.496 36.197 1.9427 2.5185 1.2952 0.1453 1.3877-0.4359 0.46256-0.92023-0.18502-1.0655-1.7577-2.4217s-0.7386 0.94698-1.1773 1.251c-0.60977 0.42252-1.9681 0.92854-1.9681 0.92854z"/>
 </g>
 <g fill="none" stroke="#000" stroke-linecap="round">
  <path d="m13.137 19.885s1.3877 11.527 11.425 2.1795c1.9427-5.6182 1.2952-7.8462 1.2952-7.8462l-4.9956 3.1966-2.8678-0.38746-2.8678-5.037z"/>
  <path d="m15.485 26.676-8.5522 6.179s-1.6652 1.6467-0.64758 2.8091c1.0176 1.1624 4.5154-0.61158 4.5154-0.61158s3.6358-2.5919 5.7533-3.4568c2.1408-0.87443 3.5154 0.77493 3.5154 0.77493l-1.8502 7.4587s-1.0639 3.6809 3.1916 2.3248c1.5727-4.02 2.4599-5.8234 3.8623-7.8098 1.1353-1.6081 3.1685-2.8454 3.1685-2.8454s3.6542-1.3561 4.6718-1.8405c1.0176-0.48433 7.0309 7.5556 7.0309 7.5556s1.1101 1.7436 2.2203 1.6467c1.1101-0.09687 2.1278-0.19373 2.1278-1.453 0-1.2593-1.2221-2.492-1.804-3.245-2.2154-2.867-3.6542-6.2963-3.6542-6.2963s-2.1537-5.8808-5.2731-6.3932c-2.359-0.38746-7.5697 1.0572-7.5697 1.0572"/>
  <path d="m29.661 33.084-0.84944 2.9198s-1.0176 2.4701-0.13877 2.8576c0.87886 0.38746 1.3414 0.62963 2.359-0.24217 0.68396-0.58595 1.982-4.545 1.982-4.545"/>
  <path d="m35.611 20.021s4.8086-3.7545 4.178-7.7711c-0.63055-4.0166-2.7441-4.6762-4.8256-4.7731-2.0815-0.09687-4.0127 1.3804-4.7874 1.8889-0.77477 0.50856-4.2575 2.796-6.0153 0.56803-1.7577-2.2279 0.90398-4.2005 0.90398-4.2005"/>
 </g>
 <path d="m15.93 21.164c-0.12677 0.16553-0.12558 0.06409-0.12558 0.06409m4.9687 0.56252c-0.12677 0.16553-0.03307 0.01566-0.03307 0.01566" fill="none" stroke="#000" stroke-linecap="round" stroke-width="1.4817"/>
</svg>
